<svg xmlns="http://www.w3.org/2000/svg" viewBox="0 0 64 64" role="img" aria-label="Pi-hole"><path d="M32 19c-15 0-24 10-22 23 2 12 15 18 22 18s20-6 22-18c2-13-7-23-22-23z" fill="#df2e38"/><path d="M30 21c-6-9-3-16 2-18 1 8 6 9 11 8-1 7-6 11-13 10z" fill="#4ecb57"/><path d="M28 17C19 8 13 10 9 13c6 1 8 5 8 10" fill="none" stroke="#51c85a" stroke-width="4" stroke-linecap="round"/><circle cx="24" cy="36" r="2" fill="#8b1720"/><circle cx="40" cy="36" r="2" fill="#8b1720"/><path d="M24 47c5 3 11 3 16 0" fill="none" stroke="#8b1720" stroke-width="2" stroke-linecap="round"/></svg>
